<svg xmlns="http://www.w3.org/2000/svg" width="75" height="75" viewBox="0 0 75 75">
  <g id="Grupo_333" data-name="Grupo 333" transform="translate(-3777 12534)">
    <g id="Categorias" transform="translate(3777 -12534)">
      <circle id="Elipse_33" data-name="Elipse 33" cx="37.5" cy="37.5" r="37.5" fill="#fff"/>
    </g>
    <g id="Camada_x0020_1" transform="translate(3793 -12526.01)">
      <path id="Caminho_145" data-name="Caminho 145" d="M34.76,56.051l-26.986.021c-.14-1.756.539-1.628,1.881-2.306.82-.414,2.15-1.179,2.915-1.46.652-.24,16.76-.2,17.3-.039a31.778,31.778,0,0,1,2.92,1.45C34.15,54.4,34.89,54.31,34.76,56.051ZM2.444,32.453c1.63.913,1.575,2.463,4.2,3.176,4.015,1.092,5.132-3.123,7.211-3.638,3.142-.778,3.231,3.733,7.345,3.789a4.833,4.833,0,0,0,2.79-.9c1-.671,1.042-1.022,1.887-1.888,1.864-1.912,3.506-1.075,4.775.519a4.711,4.711,0,0,0,1.892,1.73,4.957,4.957,0,0,0,3.262.433c2.751-.6,2.608-2.306,4.3-3.227a27.06,27.06,0,0,1-1.9,6.224H28.144c-1.091,0-2.6-.259-2.921.621-.668,1.831,3.014,1.313,5.337,1.313h6.748a20.624,20.624,0,0,1-2.22,4.015A21.055,21.055,0,0,1,30.5,49.7c-1.042.807-1.141.581-2.661.578H15.009c-2.286,0-2.32.229-4.584-1.975C9,46.911,5.59,42.324,5.241,40.607h9.014c1.91,0,7.568.329,8.786-.306L23.1,39c-1.213-.653-7.371-.326-9.3-.326H4.339a26.544,26.544,0,0,1-1.894-6.22Zm-.368-2.369c-.2-1.789-.279-4.8.551-6.194.306.175.056.008.286.207.815.705,3.1,4.388,6.887,2.486,2.3-1.156,2.4-2.98,4.153-3.3a2.871,2.871,0,0,1,2.694.977c1.1,1.15,2,2.781,4.555,2.818,4.123.06,3.939-4.115,7.1-3.83,2.535.229,3.007,4.556,7.285,3.766,2.69-.5,2.923-2.162,4.334-3.131.824,1.358.762,4.469.545,6.19a6.978,6.978,0,0,0-2.353,1.418c-.864.8-.978,1.419-1.952,1.975-2.47,1.408-3.711-1.057-4.754-2.072a4.793,4.793,0,0,0-5.691-.829c-2.026,1.09-2.189,3.212-4.376,3.274-2.206.063-2.456-2.018-4.447-3.176a4.657,4.657,0,0,0-5.655.672c-1.026.946-2.293,3.48-4.756,2.194-1.765-.921-.347-1.484-4.4-3.447ZM19.5,18.112c1.855.922,16.188-.228,17.187.462A10.616,10.616,0,0,1,39.2,22.029c-1.444.715-2.419,2.972-4.131,3.109-2.31.185-2.851-1.987-4.169-2.9a4.945,4.945,0,0,0-5.62-.109c-1.383.959-1.943,3.059-4.081,3.012-2.165-.048-2.363-1.971-4.161-3.082a4.771,4.771,0,0,0-5.462.256c-1.205.888-1.985,3.1-4.25,2.8-1.61-.212-2.549-2.346-3.976-3.081a8.973,8.973,0,0,1,1.4-2.316c.97-1.189,1.134-1.339,2.092-1.341,2.367,0,4.739.01,7.107.01.946,0,2.792.282,3.267-.4.826-1.194-.634-1.523-1.6-1.517-2.352.015-4.713.015-7.065,0,.154-.329,3.824-2.894,4.8-2.894H29.2c.956,0,4.638,2.572,4.8,2.894-2.359.008-13.387-.331-14.574.3l.076,1.335Zm-5.942-6.475c-1.063-2.553.106-1.7-2.561-5.788l20.516,0c-.291.74-1.109,1.727-1.554,2.693-.539,1.168-.547,2.025-.976,3.1H13.556ZM9.12,3.915c-1.9,0-1.864-1.928,0-1.928H33.427c1.815,0,1.907,1.928,0,1.928ZM3,18.873C.571,22.053-.491,26,.215,31.024A35.638,35.638,0,0,0,6.947,47.249c1.371,1.736,3.422,3.549,3.676,3.908-1.293.551-3.759,1.655-4.332,2.565-.666,1.057-1.1,4.119,1.471,4.265.738.042,25.478.145,27.145-.008,2.034-.186,2.3-2.773,1.277-4.336-.522-.8-3.084-1.992-4.261-2.485a16.546,16.546,0,0,1,1.989-1.973,28.757,28.757,0,0,0,4.676-6.644c3.683-7.047,6.15-16.778.952-23.657-1.479-1.958-6.171-5.774-8.532-6.721a9.929,9.929,0,0,1,2.656-5.8c.789-.955,1.653-.518,2.505-1.724a2.918,2.918,0,0,0,.184-3.1C35.213-.506,32.273.055,29.5.055H12.894c-2.789,0-5.665-.568-6.76,1.577A2.874,2.874,0,0,0,7.772,5.66c.817.287.7.2,1.171.794a9.64,9.64,0,0,1,2.593,5.7,29.631,29.631,0,0,0-8.541,6.715ZM16.163,7.848a.94.94,0,0,0,.094,1.833L26.4,9.65a.937.937,0,0,0-.108-1.815Z" transform="translate(0 0)" fill="#3e4095" fill-rule="evenodd"/>
    </g>
  </g>
</svg>
