<svg xmlns="http://www.w3.org/2000/svg" width="75" height="75" viewBox="0 0 75 75">
  <g id="Grupo_338" data-name="Grupo 338" transform="translate(-4682 12534)">
    <g id="Categorias" transform="translate(4682 -12534)">
      <circle id="Elipse_33" data-name="Elipse 33" cx="37.5" cy="37.5" r="37.5" fill="#fff"/>
    </g>
    <g id="Camada_x0020_1" transform="translate(4695.999 -12520.01)">
      <path id="Caminho_147" data-name="Caminho 147" d="M25.291,40.581c-.642.248-18.217.1-20.476.1V21.922l4.428-3.227c.392-.293.725-.518,1.108-.806l4.4-3.253c1.976-1.483,5.845-4.442,7.764-5.727l7.122,5.222c.078.059,10.542,7.711,10.631,7.932.121.3.045,17.431.045,18.613h-6.22V23.453h-8.8V40.58ZM2.327,43.068H42.705v-22.1c0-.287-.051-.159-.188-.291L37.73,17.137c-.423-.318-.827-.6-1.271-.929L22.516,5.942l-2.05,1.49c-.709.532-1.333.975-2.037,1.5L4.022,19.6c-.377.283-.671.486-1.054.764-.575.418-.557.326-.547,1.271.078,7.095-.094,14.4-.094,21.435Zm13.2-37.891V2.211H10.747V8.526c0,.361-2.346,1.94-2.641,2.143l-7,5.155c-.761.562-1.6,1.373-.753,2.328s1.912.084,2.518-.372l9.186-6.794c1.76-1.321,3.458-2.555,5.22-3.869.451-.336.816-.587,1.272-.928l3.964-2.925,2.6,1.9c.456.335.859.646,1.311.986l13.041,9.637c.457.343.865.648,1.325.971,1.139.8,2.034,1.817,3.062,1.817A1.3,1.3,0,0,0,45,17.329c0-.8-.542-1.105-1.024-1.464l-5.729-4.223c-.516-.386-.909-.673-1.436-1.052L26.808,3.181c-.494-.37-.936-.684-1.436-1.051s-.946-.711-1.42-1.067C23.7.873,23.508.747,23.226.544c-.26-.187-.474-.375-.71-.534l-6.11,4.511c-.292.22-.588.465-.875.656ZM9.216,31.394h7.942V23.452H9.216Zm16.075,9.186V23.453h0V40.58Z" transform="translate(0)" fill="#3e4095" fill-rule="evenodd"/>
    </g>
  </g>
</svg>
