<svg xmlns="http://www.w3.org/2000/svg" width="75" height="75" viewBox="0 0 75 75">
  <g id="Grupo_337" data-name="Grupo 337" transform="translate(-4501 12534)">
    <g id="Categorias" transform="translate(4501 -12534)">
      <circle id="Elipse_33" data-name="Elipse 33" cx="37.5" cy="37.5" r="37.5" fill="#fff"/>
    </g>
    <g id="Camada_x0020_1" transform="translate(4517 -12517.012)">
      <path id="Caminho_146" data-name="Caminho 146" d="M11.69,38.921c.137-.175-.065-.318-.18-.419l-.167.063c.246.071.17.062.283.242.009.014.025.046.032.057s.02.039.032.056ZM28.9,13.568a3.136,3.136,0,0,0,1.138-1.153Zm-1.2,2.047L30.014,13.3a10.394,10.394,0,0,0-1.756,1.641c-.11.11-.162.159-.27.267s-.054.03-.135.134c-.166.212-.053.045-.156.276ZM15.826,40.3c-.077.1-.033-.055-.076.172l-.014,4.208h2.428V39.444c-.054.093-.022-.07-.083.211a2.2,2.2,0,0,0-.037.346l0,4.544-2.27.039a21,21,0,0,0,.056-4.282ZM.255,26.067.227.1H42.935l-.028,25.967h.165V-.01H.09V26.067H.255ZM18.884,30.2a3.435,3.435,0,0,0,.318,2.11,3.207,3.207,0,0,0,2.75,1.63,3.124,3.124,0,0,0,3.137-2.662c0-1.584.085-1.758-1.009-2.857a2.156,2.156,0,0,0-.817-.532A3.141,3.141,0,0,0,18.884,30.2Zm14.028.539a3.168,3.168,0,1,0,4.46-2.841,3.1,3.1,0,0,0-3.586.657,3.519,3.519,0,0,0-.873,2.184Zm-28.145-.36a2.948,2.948,0,0,0,.919,2.678,3.133,3.133,0,0,0,5.285-1.689c0-1.131.12-1.987-.919-2.947a3.17,3.17,0,0,0-4.32.046,2.785,2.785,0,0,0-.965,1.912ZM15.826,40.3a21,21,0,0,1-.056,4.282l2.27-.039,0-4.544a2.2,2.2,0,0,1,.037-.346c.061-.281.029-.117.083-.211,0-.572-.115-.75.36-.877.378.277.273.628.27,1.259v4.856h6.384V39.915c0-.593-.08-1.092.27-1.349.528.141.362.59.36,1.259v4.856h2.428c0-1.9.058-5.291-.09-7.014a3.979,3.979,0,0,0-.5-1.21,4.558,4.558,0,0,0-.885-.913,6.088,6.088,0,0,0-2.607-.989l-3.383-.125c-1.943.1-3.821.79-4.708,2.486-.41.785-.237,2.4-.237,3.386Zm14.028-1.285v5.665h2.338V38.746a1.335,1.335,0,0,0,.45-.18l.25.289c.1.264.109,5.169.109,5.826H39.3V38.926c0-.273.156-.305.36-.36a.523.523,0,0,1,.27.539V44.68h2.428l0-4.319a21.02,21.02,0,0,0-.243-3.174c-1.038-2.582-3.819-2.757-6.774-2.757a8.919,8.919,0,0,0-2.231.286,5.086,5.086,0,0,0-.906.352,3.912,3.912,0,0,0-1.126.672,2.588,2.588,0,0,0-.879,1.1,5.811,5.811,0,0,0-.342,2.175Zm-18.511-.45.167-.063c.115.1.317.244.18.419v5.759h2.518c0-1.661.152-6.6-.446-7.827a2.184,2.184,0,0,0-.652-.877c-.086-.094-.043-.059-.125-.145a5.267,5.267,0,0,0-1.458-.879,9.717,9.717,0,0,0-3.613-.523,7.748,7.748,0,0,0-4.808,1.127c-1.862,1.363-1.283,2.979-1.4,5.078-.022.4-.088.432-.094.9l0,3.151H3.957c0-.458-.021-5.413.139-5.8.145-.347.478-.431.574.04l.1,5.756h6.294l0-5.578a.565.565,0,0,1,.286-.537ZM.255,26.067h8.2q0-2.653,0-5.305l-.36-5.215c-.076.324-.742,1.825-1.025,2.932-.2.771.32,5-.14,5.7-.421.648-1.917.986-2.142-.745-.087-.668.042-1.363-.034-2.034a10.824,10.824,0,0,1,.113-3.69l.99-3.057a8.266,8.266,0,0,1,.883-2.085,10.843,10.843,0,0,1,3.782-1.254c.219.328.462.68.708,1,.41.534.257.645.183,1.419l-.8,6.305c-.067.758-.226.86.244,1.37a6.95,6.95,0,0,1,.832.966c.246-.18.645-.768.926-1.052.434-.438.253-.711.145-1.638-.066-.569-.126-1.149-.212-1.767l-.623-4.965c-.026-.351-.116-.129.469-.934.558-.767.512-.78,2.173-.347,3.129.815,2.443,1.705,3.519,4.574.821,2.191.122,1.151,3.284,2.741a6.856,6.856,0,0,0,1.469.6L28.9,13.568l1.138-1.153c.365-.049.977-.935,1.349-1.185.254.379.195.4-.472,1.057-.187.186-.307.31-.5.494-.086.085-.152.135-.231.223a.8.8,0,0,0-.11.141c-.118.2-.027-.051-.061.153L27.7,15.615,23.447,19.84c.149.5.761.854.343,1.6-.624,1.115-2,.273-3.106-.233L17.594,19.8c-1.2-.6-1-.636-1.712-2.784-.188-.568-.382-1.367-.776-1.473-.391.816-.18,8.8-.18,10.521H42.908L42.935.1H.227L.255,26.067Zm8.2-18.7a3.135,3.135,0,0,1,1.2-2.577l.26-.189a3.134,3.134,0,0,1,4.049.4c2.324,2.245.143,5.509-1.642,5.509-1.312,0-1.972.134-3.036-1.01a3.282,3.282,0,0,1-.83-2.138Z" transform="translate(0)" fill="#3e4095" fill-rule="evenodd"/>
    </g>
  </g>
</svg>
