<svg xmlns="http://www.w3.org/2000/svg" width="75" height="75" viewBox="0 0 75 75">
  <g id="Grupo_332" data-name="Grupo 332" transform="translate(-3596 12534)">
    <g id="Categorias" transform="translate(3596 -12534)">
      <circle id="Elipse_33" data-name="Elipse 33" cx="37.5" cy="37.5" r="37.5" fill="#fff"/>
    </g>
    <g id="Camada_x0020_1" transform="translate(3608 -12515)">
      <path id="Caminho_149" data-name="Caminho 149" d="M27.15,32.17h2.461v5.856H27.15c-.089-.141-.073-.012-.127-.281l.127-5.577Zm-24.1,2.9,12.255.018.006,2.935H2.975a7.322,7.322,0,0,1-.147-2.32c.017-.516-.1-.49.222-.635Zm-.074-14.6,12.336.032L15.3,32.17H3.012c-.2-.2-.071.069-.156-.267,0,0-.153-10.938.12-11.431ZM18.2,26.322H46.98v2.9l-28.25,0-.527-.023V26.322ZM2.975,14.906l12.335.03v2.582H2.975a2.619,2.619,0,0,1-.135-1.359L2.975,14.9ZM9.758,2.986c.128-.078.034-.076.288-.126l2.029-.009c11.218,0,22.793.107,33.955,0,1.3-.013.738,0,.949.137V23.377L18.2,23.358l-.016-11.4H9.758V2.986ZM0,40.858l18.2.021v-8.69l5.824-.019.134,0v5.853h-3V40.88l14.407-.01V38.033l-3.011-.006V32.171H49.788L49.833,0H6.805V11.959H.013L0,40.858ZM49.787,32.17c.326-.19.181-.972.181-1.748L49.974.4c-.082-.7.024-.14-.141-.4l-.045,32.17ZM46.98,2.986c-.21-.133.355-.149-.949-.137-11.162.109-22.737,0-33.955,0l-2.029.009c-.255.05-.161.048-.288.126H46.981ZM18.2,40.879,0,40.858c.117.17-.156.171.937.16l15.078,0a6.181,6.181,0,0,0,2.189-.136Zm17.363-.01-14.407.01c.124.074.038.085.294.127l13.717.014C35.618,40.964,35.349,41.048,35.566,40.869Zm-32.554-8.7-.037-11.7c-.273.493-.12,11.429-.12,11.431C2.942,32.241,2.816,31.975,3.012,32.171Zm-.037,5.857.074-2.955c-.323.145-.2.119-.222.635A7.322,7.322,0,0,0,2.975,38.028Zm24.175,0V32.17l-.127,5.577C27.076,38.016,27.061,37.887,27.15,38.028ZM2.975,17.52V14.906L2.84,16.162A2.619,2.619,0,0,0,2.975,17.52Z" transform="translate(0)" fill="#3e4095" fill-rule="evenodd"/>
    </g>
  </g>
</svg>
