<svg xmlns="http://www.w3.org/2000/svg" width="75" height="75" viewBox="0 0 75 75">
  <g id="Grupo_339" data-name="Grupo 339" transform="translate(-4863 12534)">
    <g id="Categorias" transform="translate(4863 -12534)">
      <circle id="Elipse_33" data-name="Elipse 33" cx="37.5" cy="37.5" r="37.5" fill="#fff"/>
    </g>
    <g id="Camada_x0020_1" transform="translate(4878.01 -12522.846)">
      <path id="Caminho_150" data-name="Caminho 150" d="M14.769,35.012l.029.029S14.759,35.022,14.769,35.012Zm4.166-23.8a6.345,6.345,0,0,1,3.538,1.124l4.562,2.48a58.141,58.141,0,0,1,5.745,3.677c1.215.841,2.16,1.813,3.09,1.224l2.7-2.058c.463-.347.856-.667,1.346-1.034.847-.635,2.147-1.825,2.919-1.842-.086,1.036-2.611,2.826-3.528,3.514-.716.537-1.344.983-2.054,1.516-2.149,1.613-1.731,1.932-4.633.524-.778-.378-4.254-2.009-4.727-1.945a1.135,1.135,0,0,0-.911.77c-.178.385-.352.831-.5,1.188-2.591,6.327-5.41,12.769-7.932,19.045-.645,1.6-1.35,3.184-1.984,4.761a33.671,33.671,0,0,1-1.828,4.023c-.688.688-2.732.412-1.659-2.254l1.332-3.627c.627-1.636,1.238-3.236,1.827-4.818.307-.825.573-1.549.869-2.4.57-1.643,2.518-6.592,2.518-7.5,0-1.2-1.134-2.032-2.4-.412l-2.644,4.1a54.5,54.5,0,0,1-3.064,4.771c-1.158,1.125-2.013-.132-2.013-.823,0-.767,2.159-4.992,2.679-6.049.167-.34.275-.658.461-1.027l5.159-10.908c.99-1.979,1.491-3.049-1.158-3.043l-13.2,0a9.7,9.7,0,0,1-1.285-.2c.224-.837,2.665-.921,3.754-1.105.984-.167,12.089-1.672,13.007-1.672ZM-.01,13.687c0,3.328,4.106,2.579,6.844,2.579H15.86c-.126.239-.188.444-.3.693s-.228.46-.362.729l-3.407,7.206c-.233.472-.408.924-.66,1.423L7.754,33.552c-.669,1.675-.476,3.509,1.041,4.458a3.3,3.3,0,0,0,4.457-.646c.626-.742,1.245-1.955,1.517-2.153L11.458,44.1c-.535,1.5-1.66,3.963.059,5.57a3.6,3.6,0,0,0,2.954.914c1.411,0,2.389-1.546,2.835-2.621l3.213-7.7c1.56-3.527,3.3-7.923,4.821-11.545.288-.686.49-1.213.778-1.9l2.438-5.894a33.618,33.618,0,0,1,3.117,1.347c1.916.8,3.417,1.9,5.442.369l5.666-4.351a6.862,6.862,0,0,0,.776-.711c.949-.945,2.006-2.576,1.071-3.9-1.589-2.248-3.774-.464-5.006.458l-3.542,2.707a5.424,5.424,0,0,0-.879.708l-3.511-2.44c-2.109-1.406-3.536-2.144-5.681-3.345l-2.016-1.058c-2.343-1.161-2.27-1.588-5.355-1.588a19.584,19.584,0,0,0-2.609.268l-7.737.991c-1.772.259-5.9.615-7.154,1.475A2.431,2.431,0,0,0-.01,13.688ZM29.547,48.6a3.19,3.19,0,0,1-2.8-1.064c-3.061-3.194,1.715-7.934,4.864-4.765A3.4,3.4,0,0,1,29.547,48.6Zm.53,2.182H28.456a4.692,4.692,0,0,1-2.908-1.258A5.713,5.713,0,0,1,28.183,39.6a6.425,6.425,0,0,1,3.481.437,4.641,4.641,0,0,1,1.241.842,5.691,5.691,0,0,1-.844,9.246,4.776,4.776,0,0,1-1.985.659ZM23.7,5.653a3.568,3.568,0,0,1,1-2.471l.1-.1C27.986.008,32.8,4.625,29.718,8.006A3.522,3.522,0,0,1,23.7,5.653ZM27.214,0h.547c2.4,0,5.058,2.442,5.058,5.554a5.644,5.644,0,0,1-9.5,4.143c-1.479-1.355-1.709-2.818-1.709-4.639A5.581,5.581,0,0,1,24.718.527,4.947,4.947,0,0,1,27.215,0Z" fill="#3e4095" fill-rule="evenodd"/>
    </g>
  </g>
</svg>
