<svg xmlns="http://www.w3.org/2000/svg" width="75" height="75" viewBox="0 0 75 75">
  <g id="Grupo_334" data-name="Grupo 334" transform="translate(-3958 12534)">
    <g id="Categorias" transform="translate(3958 -12534)">
      <circle id="Elipse_33" data-name="Elipse 33" cx="37.5" cy="37.5" r="37.5" fill="#fff"/>
    </g>
    <g id="Camada_x0020_1" transform="translate(3974.996 -12517.013)">
      <path id="Caminho_153" data-name="Caminho 153" d="M34.479,42.395c1.833.108,3.722-.36,3.781-2.67.061-2.35-1.923-2.91-3.785-2.8-1.706-2.74-4.066-2.485-8.028-2.485H15.871c-3.742,0-9.5-.8-11.476,1.743-.873,1.125-.254.584-1.709.688a2.8,2.8,0,0,0-.118,5.562c1.346.161.96-.477,1.773.614,1.969,2.64,7.613,1.83,11.391,1.83H26.308c3.965,0,6.484.282,8.171-2.485ZM3.63,10.367c-.1,1.178-1.185,4.341-1.53,5.847C1.181,20.222-1.024,33.766.563,36.166l1.291-.552c-.765-3.1.175-10.3.617-13.574C2.706,20.3,4.527,11.052,5.434,10.507H21.584L19.8,17.078l1.531.3c.219-1.2.558-2.438.879-3.6.2-.731.634-2.943,1.178-3.274,1.986,0,3.184-.113,3.964-1.464.562-.973.787-3.736.032-4.458l-4.1-.075a3.08,3.08,0,0,1,5.59-1.717c.749,1.036,1.687,6.026,2.258,7.763l1.42-.21a40.654,40.654,0,0,0-1.327-5.308C29.767-.511,27.96.027,22.829.027H9.33C5.308.027,1.59-.449,1.6,5.636a8.319,8.319,0,0,0,.249,3.027c.418,1.005.823,1.139,1.783,1.7ZM21.178,25.96l1.229.575A16.5,16.5,0,0,0,24.15,23.24c1.742-3.454,3.2-5.3,6.656-7.128.674-.357.792-.375.945-.119.091.348-.636.815-.868,1.036-.447.426-.693.716-1.167,1.2a19.05,19.05,0,0,0-2.027,2.7A34.084,34.084,0,0,0,26,23.973a26.115,26.115,0,0,0-1.579,3.272l1.349.6a25.954,25.954,0,0,1,1.445-2.933c1-2.094,4.017-7.013,5.65-7.56l.4.266-5.107,9.762c.553.178.84.449,1.333.611.481-.715.855-1.587,1.308-2.418l3.977-7.366c.405,2.061-.572,5.22-1.579,7.119a14.952,14.952,0,0,0-1.06,2.062l1.254.617a16.505,16.505,0,0,0,2.941-9.713c-.056-1.5.09-.84.708-1.785L42.843,7c1.762-2.908-1.259-5.92-3.934-4.217a8.731,8.731,0,0,0-2.116,2.9c-1.305,2.193-3.774,5.955-4.843,7.962-.83,1.559-4.963.723-9.1,8.849a29.422,29.422,0,0,0-1.672,3.464Zm-9.07,17.414c4.874.165,12.383.019,17.539.018,5.488,0,5.5-7.462,0-7.462-5.393,0-12.334-.123-17.539.015.408.835,2.367,2.717,1.033,5.788-.339.781-.773,1.1-1.033,1.641ZM10.026,33.142l1.275-.46c-.287-1.617-1.571-3.5-1.821-5.2,7.813,4.3,25.955,4.332,33.658-.015-.461,1.619-1.994,5.418-2.734,7.293a25.847,25.847,0,0,1-1.171,2.325,3,3,0,0,0,1.131.859c1.151-1.47,3.874-8.533,4.334-10.573.644-2.857.338-4.125-1.5-5.364a15.7,15.7,0,0,0-5.479-2.048l-.369,1.366c1.978.583,3.768.973,5.259,2.1,2.265,1.714-.456,2.931-2.106,3.654l-.75-.936a7.585,7.585,0,0,0-3.571-1.738l-.36,1.379c1.038.493,2.758.768,3.136,1.847a45.2,45.2,0,0,1-12.65,1.537,63.525,63.525,0,0,1-6.747-.361c-2.16-.22-4.111-.9-5.968-1.146.5-1.24,3.4-1.973,4.809-2.241l1.4-.253c.46-.106.217.007.57-.191l-.19-1.362a17.531,17.531,0,0,0-6.631,1.959c-.937.6-.784.646-1.434,1.486-1.091-.289-3.236-1.4-2.988-2.566.6-2.843,10.955-4.02,13.385-4.171l0-1.431c-2.616-.3-10.073,1.247-12.77,2.881C7.625,23.058,7.25,24.3,7.877,27.414a36.28,36.28,0,0,0,2.149,5.727ZM22.15,8.967c-.7-2.307-.6-5.864.739-7.425C21.782,1.407,13.273,1.5,11.418,1.5c-3.8,0-8.269-.973-8.344,3.29-.089,5.058-.2,4.181,7.37,4.181,3.878,0,7.838.078,11.706-.009ZM40,3.964c-.987.456-1.447,1.731-2.289,3.062C37.035,8.1,36.4,9.156,35.708,10.3c-.893,1.483-2.944,4.105-2.493,5.252a1.458,1.458,0,0,0,1.921.726c.68-.271,5.411-8.443,6.2-9.676,1.5-2.356-.46-3.044-1.328-2.643ZM5.7,36.935l.646.237c.2.031.522.038.755.059,3.613.339,3.127,3.642,1.469,4.525a8.852,8.852,0,0,1-2.859.468c1.4,2.109,6.259,1.359,6.363-2.5a3.751,3.751,0,0,0-4.524-3.718,5.7,5.7,0,0,0-1.85.926ZM2.554,38.459a1.266,1.266,0,0,0,.377,2.492,41.62,41.62,0,0,0,4.314-.389c.688-.073,1.207-.249,1.074-1.072-.128-.793-.8-.694-1.571-.775a19.077,19.077,0,0,0-4.193-.257ZM26.308,7.167V6.01l-3.027.011c0,1.325-.1,2.511,1.022,2.872,1.251.4,2.005-.584,2.005-1.726Zm8.9,33.794c2.1-.047,2.086-2.542-.04-2.6Z" transform="translate(0 0)" fill="#3e4095" fill-rule="evenodd"/>
    </g>
  </g>
</svg>
