<svg xmlns="http://www.w3.org/2000/svg" width="75" height="75" viewBox="0 0 75 75">
  <g id="Grupo_335" data-name="Grupo 335" transform="translate(-4139 12534)">
    <g id="Categorias" transform="translate(4139 -12534)">
      <circle id="Elipse_33" data-name="Elipse 33" cx="37.5" cy="37.5" r="37.5" fill="#fff"/>
    </g>
    <g id="Camada_x0020_1" transform="translate(4154 -12519.005)">
      <path id="Caminho_148" data-name="Caminho 148" d="M9.6,15.748l4.989,5.045a8.08,8.08,0,0,1,1.622,1.753L9.455,29.306c-2.306,0-3.684-.37-6.135,1.366C-1.308,33.95-.189,40.225,1.425,41.457c2,1.525,2.927-2.227,3.823-3.254.282-.323,1.121-.272,1.669-.218.665.066.707.4,1,.89.67,1.12.424.95-.526,2.63-.406.718-1.268,1.781-.757,2.777.765,1.491,5.243.7,7.707-2.587,1.69-2.254,1.384-4.036,1.354-6.154l6.755-6.753a6.17,6.17,0,0,1,1.441,1.3c.5.51.913.9,1.408,1.445l2.81,2.79c.332.327,1.186.974,1.171,1.5A10.547,10.547,0,0,0,29.3,38.5,7.956,7.956,0,0,0,39.38,44.655c1.227-.384,3.27-1.353,2.052-2.844-.648-.793-2.963-1.65-3.391-2.224a4.125,4.125,0,0,1-.082-1.308,1.727,1.727,0,0,1,2.34-1.362c.56.33,1.186.678,1.742,1.007,3.127,1.848,3.417-1.063,2.406-3.679A7.874,7.874,0,0,0,38.414,29.3a10.7,10.7,0,0,0-2.573,0c-.553.019-.857-.506-1.528-1.179-1.317-1.322-4.55-4.426-5.548-5.572.247-.444,5.3-5.342,6.261-6.336.267-.277.344-.507.79-.491,2.618.093,4.07.134,6.467-1.867a7.921,7.921,0,0,0,2.359-8.215c-.386-1.206-1.324-3.275-2.848-2.1-.642.5-1.588,2.658-2.221,3.463-1.931.209-1.938.125-2.663-1.134-.477-.827-.149-.906.736-2.462.37-.65,1.273-1.839.652-2.728C37.184-.918,32.689.484,30.712,3.232c-1.431,1.99-1.608,3.307-1.434,6.213-.4.536-6.543,6.633-6.828,6.788L15.719,9.525c-.212-.471.731-3.238-1.358-6.148-3.076-4.286-8.944-3.9-10.748-2S5.857,4.476,6.77,5.264c.334.289.3,1.064.241,1.645-.071.756-1.489,1.625-2.126,1.306-.442-.221-.846-.486-1.281-.735C2.935,7.1,1.752,6.167.811,6.61c-1.94.914-.453,7.448,5.056,8.956,1.617.443,2.312.064,3.734.182ZM2.393,39.67a11.741,11.741,0,0,1,1.942-3.016,4.472,4.472,0,0,1,4.007,0,4.926,4.926,0,0,1,1.732,3.211c-.06.987-1.227,2.5-1.621,3.335,2.885.033,5.5-2.876,5.6-5.86.095-2.841-1.373-1.327,1.913-4.589L29.855,18.858c1.558-1.558,3.055-3.142,4.645-4.652.972-.923,1.416.29,3.923-.3,4.9-1.147,5.6-6.8,4.208-8.5-.772.923-1.048,2.124-1.962,2.915a4.409,4.409,0,0,1-4.04.04,5.23,5.23,0,0,1-1.738-3.15c.041-1.17,1.266-2.41,1.6-3.4-2.858-.019-5.515,2.953-5.575,5.93-.054,2.685,1.359,1.263-1.972,4.591L12.779,28.509c-2.948,2.938-2.178,2.734-4.067,2.5a5.973,5.973,0,0,0-5.165,1.8A5.684,5.684,0,0,0,1.9,35.795c-.249,1.155-.267,3.124.49,3.875Zm2.982-37.3c.892.745,2.307,1.087,2.953,1.972A4.4,4.4,0,0,1,8.363,8.35,4.992,4.992,0,0,1,5.124,10.1c-1.194-.074-2.377-1.337-3.345-1.6a6.132,6.132,0,0,0,5.233,5.513c1,.155,2.8-.327,3.253.008s1.33,1.328,1.8,1.792l3.592,3.593c.576.576,1.263,1.345,1.859,1.82l1.214-1.2c-.3-.472-2.812-2.918-3.5-3.576-.224-.215-1.125-.933-.378-1.616.833-.762,1.858.651,2.763,1.556a28.547,28.547,0,0,0,2.406,2.34,5.118,5.118,0,0,0,1.158-1.259l-7.024-7.024c-.538-.574-.3-.8-.184-1.554a6.162,6.162,0,0,0-2.283-5.806C9.857,1.663,6.74,1.279,5.375,2.366ZM26.268,24.975c.232.4,2.812,2.876,3.5,3.566.288.289,1.013.961.4,1.614-.8.854-1.8-.565-2.789-1.553a23.435,23.435,0,0,0-2.4-2.314l-1.227,1.19c.666.859,5.793,5.717,7.111,7.143.541.585.206.958.1,1.724a6.17,6.17,0,0,0,2.369,5.628c1.763,1.369,4.97,1.71,6.3.661C37.006,41.146,36.2,41.061,36.2,38.6a2.963,2.963,0,0,1,.725-2.33,9.91,9.91,0,0,1,1.891-1.168c1.719-.718,3.076.94,4.386,1.4a6.16,6.16,0,0,0-5.322-5.519c-.983-.117-2.715.316-3.162,0l-7.192-7.174a5.767,5.767,0,0,0-1.254,1.158Zm-6.9-.465a28.768,28.768,0,0,0-3.042,2.9c-.463.465-1.082,1-1.476,1.48-.539.654-.065,1.863,1,1.436.307-.123,2.6-2.495,3.014-2.915a19.726,19.726,0,0,0,1.473-1.486c.514-.7-.03-1.787-.966-1.411Zm9.789-9.772a25.007,25.007,0,0,0-3.06,2.9,20.114,20.114,0,0,0-1.472,1.485.884.884,0,0,0,1.122,1.339L30.2,16.033c.49-.763-.141-1.724-1.045-1.294Zm-6.888,6.945a.863.863,0,1,0,.53,1.637A.863.863,0,0,0,22.269,21.683Z" transform="translate(0)" fill="#3e4095" fill-rule="evenodd"/>
    </g>
  </g>
</svg>
