<svg xmlns="http://www.w3.org/2000/svg" width="75" height="75" viewBox="0 0 75 75">
  <g id="Grupo_336" data-name="Grupo 336" transform="translate(-4320 12534)">
    <g id="Categorias" transform="translate(4320 -12534)">
      <circle id="Elipse_33" data-name="Elipse 33" cx="37.5" cy="37.5" r="37.5" fill="#fff"/>
    </g>
    <g id="Camada_x0020_1" transform="translate(4332.026 -12522.078)">
      <path id="Caminho_152" data-name="Caminho 152" d="M23.277,18.369,5.975,29.392c-2.22,1.38-3.937,2.257-5.1,4.452A7.579,7.579,0,0,0,7.178,44.9c2.967.166,6.393.014,9.41.014H35.553c2.893,0,6.773.22,9.548-.033A7.563,7.563,0,0,0,51.174,33.8c-1.083-2.068-3-3.133-5.027-4.387l-11.567-7.4c-1.924-1.243-3.967-2.437-5.8-3.72l0-2.391c2.368-1.124,3.953-2.291,4.937-4.888a8.316,8.316,0,0,0-1.172-7.839c-4.376-5.641-13.617-3.379-14.6,3.8-.331,2.416.547,1.884,2.739,1.884,3.578,0,1.926.176,2.944-1.928a2.757,2.757,0,0,1,3.438-1.282c2.454.939,2.374,5.16-1.331,5.209-3.207.043-2.357-.8-2.456,7.511ZM19.309,7.451c4.185,0,1.813.162,3.617-2.041a4.164,4.164,0,0,1,6.41.29,4.108,4.108,0,0,1,.072,4.828c-1.064,1.46-2.238,1.767-4.68,1.767-.024,1.591-.007,3.195-.006,4.787,0,2.581-.03,1.98-1.747,3.114-1.972,1.3-3.935,2.534-5.907,3.781-3.979,2.516-7.857,5.1-11.816,7.558-1.912,1.187-3.85,2.7-3.806,5.877a6.121,6.121,0,0,0,4.009,5.68c2.109.749,15.8.378,19.182.378,6.456,0,12.919.03,19.375,0,3.159-.014,5.111-1.471,6.075-3.667a6.089,6.089,0,0,0-1.693-7.186L27.717,19.324c-.613-.511-.415-3.709-.236-4.477,2.214-.953,3.977-1.592,4.971-4.552a6.965,6.965,0,0,0-1.739-7.065,6.79,6.79,0,0,0-11.4,4.22ZM7.992,40.845H44.149c3.728,0,5.014-3.928,2.592-6.161-.667-.615-12.371-7.931-13.616-8.761-.8-.534-6.585-4.332-7-4.365-.544-.043-2.95,1.655-3.568,2.043L8.83,32.385c-1.151.736-2.371,1.433-3.395,2.2C2.891,36.479,4,40.845,7.992,40.845Zm0-1.427H44.149c1.416,0,2.577-.84,2.388-2.365-.156-1.259-1.536-1.867-2.457-2.439-2.548-1.581-17.615-11.4-17.983-11.446s-11.39,7.155-11.99,7.534c-1.994,1.257-4.076,2.54-6,3.826-.854.571-2.347,1.19-2.534,2.378-.267,1.7.853,2.512,2.418,2.512Z" transform="translate(0 0)" fill="#3e4095" fill-rule="evenodd"/>
    </g>
  </g>
</svg>
